<?xml version="1.0" encoding="UTF-8"?>
<!-- Created with Inkscape (http://www.inkscape.org/) -->
<svg width="565.11" height=".69937" version="1.1" viewBox="0 0 565.11 .69937" xml:space="preserve" xmlns="http://www.w3.org/2000/svg"><defs><clipPath id="clipPath16"><path d="M 0,841.89 H 595.275 V 0 H 0 Z"/></clipPath></defs><g transform="matrix(1.3333 0 0 -1.3333 -88.623 60.94)"><g clip-path="url(#clipPath16)"><g transform="translate(66.468 45.593)"><path d="m0 0 52.979 0.234c17.659 0.062 35.319 0.128 52.978 0.094 35.32-9e-3 70.639-0.012 105.96-0.16 17.659-0.015 35.319-0.13 52.979-0.063l52.978 0.142c17.66 0.08 35.319 0.023 52.979-0.027 17.66-0.038 35.319-0.078 52.979-0.22v-0.075c-17.66-0.142-35.319-0.182-52.979-0.22-17.66-0.05-35.319-0.107-52.979-0.027l-52.978 0.142c-17.66 0.067-35.32-0.048-52.979-0.063-35.319-0.148-70.638-0.151-105.96-0.16-17.659-0.034-35.319 0.032-52.978 0.094l-52.979 0.234z" fill="#e61972"/></g></g></g></svg>
